<svg width="34" height="34" viewBox="0 0 34 34" fill="none" xmlns="http://www.w3.org/2000/svg">
<path d="M31.7863 0.933472H2.21491C1.50375 0.933472 0.929199 1.50803 0.929199 2.21919V31.7906C0.929199 32.5018 1.50375 33.0763 2.21491 33.0763H31.7863C32.4975 33.0763 33.0721 32.5018 33.0721 31.7906V2.21919C33.0721 1.50803 32.4975 0.933472 31.7863 0.933472ZM30.1792 30.1835H3.82206V3.82633H30.1792V30.1835ZM8.67563 17.487H10.7127C10.8613 17.487 10.9859 17.3665 10.9859 17.2138V14.0437C10.9859 13.2522 11.6247 12.6134 12.4122 12.6134H20.677V14.7589C20.677 14.9879 20.9381 15.1125 21.1149 14.9719L25.4984 11.5286C25.639 11.4201 25.639 11.2071 25.4984 11.0987L21.1149 7.65535C20.9381 7.51472 20.677 7.64329 20.677 7.86829V10.0138H12.4082C10.1944 10.0138 8.40241 11.8138 8.40241 14.0357V17.2058C8.40241 17.3665 8.52295 17.487 8.67563 17.487ZM8.50688 22.9071L12.8904 26.3504C13.0671 26.4911 13.3283 26.3625 13.3283 26.1375V23.992H21.593C23.8069 23.992 25.5988 22.192 25.5988 19.9701V16.8C25.5988 16.6513 25.4783 16.5268 25.3256 16.5268H23.2886C23.1399 16.5268 23.0154 16.6473 23.0154 16.8V19.9701C23.0154 20.7616 22.3765 21.4004 21.589 21.4004H13.3283V19.2549C13.3283 19.0259 13.0671 18.9013 12.8904 19.042L8.50688 22.4853C8.36625 22.5857 8.36625 22.7987 8.50688 22.9071Z" fill="#1890FF"/>
</svg>
