<svg width="34" height="34" viewBox="0 0 34 34" fill="none" xmlns="http://www.w3.org/2000/svg">
<path d="M31.3042 2.86204H27.6077V1.2549C27.6077 1.07811 27.4631 0.933472 27.2863 0.933472H6.71488C6.5381 0.933472 6.39346 1.07811 6.39346 1.2549V2.86204H2.69703C2.22816 2.86204 1.7785 3.0483 1.44696 3.37984C1.11542 3.71137 0.929169 4.16104 0.929169 4.6299V10.5763C0.929169 13.8589 3.33988 16.587 6.48185 17.0853C7.10462 21.754 10.8533 25.4303 15.5542 25.9446V30.1714H7.67917C6.96801 30.1714 6.39346 30.746 6.39346 31.4571V32.7549C6.39346 32.9317 6.5381 33.0763 6.71488 33.0763H27.2863C27.4631 33.0763 27.6077 32.9317 27.6077 32.7549V31.4571C27.6077 30.746 27.0332 30.1714 26.322 30.1714H18.447V25.9446C23.1479 25.4303 26.8966 21.754 27.5193 17.0853C30.6613 16.587 33.072 13.8589 33.072 10.5763V4.6299C33.072 4.16104 32.8858 3.71137 32.5542 3.37984C32.2227 3.0483 31.773 2.86204 31.3042 2.86204ZM3.82203 10.5763V5.7549H6.39346V14.096C5.64713 13.8576 4.99586 13.3882 4.53366 12.7556C4.07147 12.1229 3.82227 11.3598 3.82203 10.5763ZM24.7149 15.7192C24.7149 17.692 23.9475 19.5522 22.5493 20.9464C21.151 22.3446 19.2948 23.112 17.322 23.112H16.6792C14.7064 23.112 12.8461 22.3446 11.4519 20.9464C10.0537 19.5482 9.28631 17.692 9.28631 15.7192V3.82633H24.7149V15.7192ZM30.1792 10.5763C30.1792 12.2237 29.0984 13.6219 27.6077 14.096V5.7549H30.1792V10.5763Z" fill="#1890FF"/>
</svg>
